<mxfile host="Electron" modified="2020-08-03T09:50:15.110Z" agent="5.0 (Windows NT 10.0; Win64; x64) AppleWebKit/537.36 (KHTML, like Gecko) draw.io/13.4.5 Chrome/83.0.4103.122 Electron/9.1.0 Safari/537.36" etag="MvMTc7YlYc8xVB8kE-ir" compressed="false" version="13.4.5" type="device">
  <diagram id="9DA2rx6Lu59frwKv_Vx1" name="Page-1">
    <mxGraphModel dx="1185" dy="685" grid="1" gridSize="10" guides="1" tooltips="1" connect="1" arrows="1" fold="1" page="1" pageScale="1" pageWidth="1169" pageHeight="827" math="0" shadow="0">
      <root>
        <mxCell id="0" />
        <mxCell id="1" parent="0" />
        <mxCell id="EFmayavJ5Sj6QgBB1d_T-3" style="edgeStyle=orthogonalEdgeStyle;rounded=0;orthogonalLoop=1;jettySize=auto;html=1;exitX=1;exitY=0.5;exitDx=0;exitDy=0;entryX=0;entryY=0.5;entryDx=0;entryDy=0;endArrow=none;endFill=0;" parent="1" source="EFmayavJ5Sj6QgBB1d_T-1" target="EFmayavJ5Sj6QgBB1d_T-2" edge="1">
          <mxGeometry relative="1" as="geometry" />
        </mxCell>
        <mxCell id="EFmayavJ5Sj6QgBB1d_T-1" value="" style="shape=image;verticalLabelPosition=bottom;labelBackgroundColor=#ffffff;verticalAlign=top;aspect=fixed;imageAspect=0;image=data:image/svg+xml,PHN2ZyB4bWxucz0iaHR0cDovL3d3dy53My5vcmcvMjAwMC9zdmciIHhtbG5zOmV2PSJodHRwOi8vd3d3LnczLm9yZy8yMDAxL3htbC1ldmVudHMiIHhtbG5zOnhsaW5rPSJodHRwOi8vd3d3LnczLm9yZy8xOTk5L3hsaW5rIiBiYXNlUHJvZmlsZT0iZnVsbCIgaGVpZ2h0PSI0MCIgdmVyc2lvbj0iMS4xIiB3aWR0aD0iNDAiIHZpZXdCb3g9IjAgMCA0MCA0MCI+PGRlZnMvPjxyZWN0IGZpbGw9IiNmZmZmZmYiIGhlaWdodD0iNDAiIHN0cm9rZT0iIzAwMDAwMCIgc3Ryb2tlLXdpZHRoPSIwLjUiIHdpZHRoPSI0MCIgeD0iMCIgeT0iMCIvPjxwb2x5Z29uIGZpbGw9IiNjNDcxNzkiIHBvaW50cz0iNDAsMTMuMzMzMzMzMzMzMzMzMzM2IDMzLjMzMzMzMzMzMzMzMzMzNiwyMC4wIDQwLDI2LjY2NjY2NjY2NjY2NjY2NCA0MCwxMy4zMzMzMzMzMzMzMzMzMzYiIHN0cm9rZT0iYmxhY2siIHN0cm9rZS13aWR0aD0iMC44Ii8+PHRleHQgc3R5bGU9ImZvbnQtc2l6ZTo4cHg7IGZvbnQtZmFtaWx5OkNvdXJpZXI7Zm9udC13ZWlnaHQ6Ym9sZDsiIHRleHQtYW5jaG9yPSJtaWRkbGUiIHg9IjIwIiB5PSIyMiI+UnVuPC90ZXh0PjxyZWN0IGZpbGw9Im5vbmUiIGhlaWdodD0iNDAiIHN0cm9rZT0iIzAwMDAwMCIgc3Ryb2tlLXdpZHRoPSIxLjYiIHdpZHRoPSI0MCIgeD0iMCIgeT0iMCIvPjwvc3ZnPg==;points=[[1, 0.5]];verticalLabelPosition=top;labelBackgroundColor=none;verticalAlign=bottom;aspect=fixed;imageAspect=0;fontFamily=Courier;fontSize=8;labelPosition=center;align=center;spacing=-1;fontStyle=1;syncNodeName=run;" parent="1" vertex="1">
          <mxGeometry x="40" y="520" width="40" height="40" as="geometry" />
        </mxCell>
        <mxCell id="FuzomE3j-5ouV37Kwk90-4" style="edgeStyle=orthogonalEdgeStyle;rounded=0;orthogonalLoop=1;jettySize=auto;html=1;exitX=1;exitY=0.5;exitDx=0;exitDy=0;entryX=0;entryY=0.5;entryDx=0;entryDy=0;endArrow=none;endFill=0;" edge="1" parent="1" source="EFmayavJ5Sj6QgBB1d_T-2" target="FuzomE3j-5ouV37Kwk90-3">
          <mxGeometry relative="1" as="geometry" />
        </mxCell>
        <mxCell id="EFmayavJ5Sj6QgBB1d_T-2" value="Value &gt;&gt;&gt;" style="shape=image;verticalLabelPosition=bottom;labelBackgroundColor=#ffffff;verticalAlign=top;aspect=fixed;imageAspect=0;image=data:image/svg+xml,PHN2ZyB4bWxucz0iaHR0cDovL3d3dy53My5vcmcvMjAwMC9zdmciIHhtbG5zOmV2PSJodHRwOi8vd3d3LnczLm9yZy8yMDAxL3htbC1ldmVudHMiIHhtbG5zOnhsaW5rPSJodHRwOi8vd3d3LnczLm9yZy8xOTk5L3hsaW5rIiBiYXNlUHJvZmlsZT0iZnVsbCIgaGVpZ2h0PSI0MCIgdmVyc2lvbj0iMS4xIiB3aWR0aD0iNDAiIHZpZXdCb3g9IjAgMCA0MCA0MCI+PGRlZnMvPjxyZWN0IGZpbGw9IiNmZmZmZmYiIGhlaWdodD0iNDAiIHN0cm9rZT0iIzAwMDAwMCIgc3Ryb2tlLXdpZHRoPSIwLjUiIHdpZHRoPSI0MCIgeD0iMCIgeT0iMCIvPjxwb2x5Z29uIGZpbGw9IiNjNDcxNzkiIHBvaW50cz0iMCwxMy4zMzMzMzMzMzMzMzMzMzYgNi42NjY2NjY2NjY2NjY2NjYsMjAuMCAwLDI2LjY2NjY2NjY2NjY2NjY2NCAwLDEzLjMzMzMzMzMzMzMzMzMzNiIgc3Ryb2tlPSJibGFjayIgc3Ryb2tlLXdpZHRoPSIwLjgiLz48cG9seWdvbiBmaWxsPSIjYmZiZmJmIiBwb2ludHM9IjQwLDEzLjMzMzMzMzMzMzMzMzMzNiAzMy4zMzMzMzMzMzMzMzMzMzYsMjAuMCA0MCwyNi42NjY2NjY2NjY2NjY2NjQgNDAsMTMuMzMzMzMzMzMzMzMzMzM2IiBzdHJva2U9ImJsYWNrIiBzdHJva2Utd2lkdGg9IjAuOCIvPjx0ZXh0IHN0eWxlPSJmb250LXNpemU6OHB4OyBmb250LWZhbWlseTpDb3VyaWVyO2ZvbnQtd2VpZ2h0OmJvbGQ7IiB0ZXh0LWFuY2hvcj0ibWlkZGxlIiB4PSIyMCIgeT0iMjIiPklucHV0PC90ZXh0PjxyZWN0IGZpbGw9Im5vbmUiIGhlaWdodD0iNDAiIHN0cm9rZT0iIzAwMDAwMCIgc3Ryb2tlLXdpZHRoPSIxLjYiIHdpZHRoPSI0MCIgeD0iMCIgeT0iMCIvPjwvc3ZnPg==;points=[[0, 0.5], [1, 0.5]];verticalLabelPosition=top;labelBackgroundColor=none;verticalAlign=bottom;aspect=fixed;imageAspect=0;fontFamily=Courier;fontSize=8;labelPosition=center;align=center;spacing=-1;fontStyle=1;syncNodeName=input;" parent="1" vertex="1">
          <mxGeometry x="120" y="520" width="40" height="40" as="geometry" />
        </mxCell>
        <mxCell id="FuzomE3j-5ouV37Kwk90-9" style="edgeStyle=orthogonalEdgeStyle;rounded=0;orthogonalLoop=1;jettySize=auto;html=1;exitX=1;exitY=0.5;exitDx=0;exitDy=0;entryX=0;entryY=0.3333333333333333;entryDx=0;entryDy=0;endArrow=none;endFill=0;" edge="1" parent="1" source="FuzomE3j-5ouV37Kwk90-1" target="FuzomE3j-5ouV37Kwk90-8">
          <mxGeometry relative="1" as="geometry" />
        </mxCell>
        <mxCell id="FuzomE3j-5ouV37Kwk90-1" value="Mode (&#39;from&#39;/&#39;to&#39; bytes) &gt;&gt;&gt;" style="shape=image;verticalLabelPosition=bottom;labelBackgroundColor=#ffffff;verticalAlign=top;aspect=fixed;imageAspect=0;image=data:image/svg+xml,PHN2ZyB4bWxucz0iaHR0cDovL3d3dy53My5vcmcvMjAwMC9zdmciIHhtbG5zOmV2PSJodHRwOi8vd3d3LnczLm9yZy8yMDAxL3htbC1ldmVudHMiIHhtbG5zOnhsaW5rPSJodHRwOi8vd3d3LnczLm9yZy8xOTk5L3hsaW5rIiBiYXNlUHJvZmlsZT0iZnVsbCIgaGVpZ2h0PSI0MCIgdmVyc2lvbj0iMS4xIiB3aWR0aD0iNDAiIHZpZXdCb3g9IjAgMCA0MCA0MCI+PGRlZnMvPjxyZWN0IGZpbGw9IiNmZmZmZmYiIGhlaWdodD0iNDAiIHN0cm9rZT0iIzAwMDAwMCIgc3Ryb2tlLXdpZHRoPSIwLjUiIHdpZHRoPSI0MCIgeD0iMCIgeT0iMCIvPjxwb2x5Z29uIGZpbGw9IiNjNDcxNzkiIHBvaW50cz0iMCwxMy4zMzMzMzMzMzMzMzMzMzYgNi42NjY2NjY2NjY2NjY2NjYsMjAuMCAwLDI2LjY2NjY2NjY2NjY2NjY2NCAwLDEzLjMzMzMzMzMzMzMzMzMzNiIgc3Ryb2tlPSJibGFjayIgc3Ryb2tlLXdpZHRoPSIwLjgiLz48cG9seWdvbiBmaWxsPSIjYmZiZmJmIiBwb2ludHM9IjQwLDEzLjMzMzMzMzMzMzMzMzMzNiAzMy4zMzMzMzMzMzMzMzMzMzYsMjAuMCA0MCwyNi42NjY2NjY2NjY2NjY2NjQgNDAsMTMuMzMzMzMzMzMzMzMzMzM2IiBzdHJva2U9ImJsYWNrIiBzdHJva2Utd2lkdGg9IjAuOCIvPjx0ZXh0IHN0eWxlPSJmb250LXNpemU6OHB4OyBmb250LWZhbWlseTpDb3VyaWVyO2ZvbnQtd2VpZ2h0OmJvbGQ7IiB0ZXh0LWFuY2hvcj0ibWlkZGxlIiB4PSIyMCIgeT0iMjIiPklucHV0PC90ZXh0PjxyZWN0IGZpbGw9Im5vbmUiIGhlaWdodD0iNDAiIHN0cm9rZT0iIzAwMDAwMCIgc3Ryb2tlLXdpZHRoPSIxLjYiIHdpZHRoPSI0MCIgeD0iMCIgeT0iMCIvPjwvc3ZnPg==;points=[[0, 0.5], [1, 0.5]];verticalLabelPosition=top;labelBackgroundColor=none;verticalAlign=bottom;aspect=fixed;imageAspect=0;fontFamily=Courier;fontSize=8;labelPosition=center;align=center;spacing=-1;fontStyle=1;syncNodeName=input;" vertex="1" parent="1">
          <mxGeometry x="280" y="480" width="40" height="40" as="geometry" />
        </mxCell>
        <mxCell id="FuzomE3j-5ouV37Kwk90-17" style="edgeStyle=orthogonalEdgeStyle;rounded=0;orthogonalLoop=1;jettySize=auto;html=1;exitX=1;exitY=0.5;exitDx=0;exitDy=0;entryX=0;entryY=0.5;entryDx=0;entryDy=0;endArrow=none;endFill=0;" edge="1" parent="1" source="FuzomE3j-5ouV37Kwk90-3" target="FuzomE3j-5ouV37Kwk90-1">
          <mxGeometry relative="1" as="geometry">
            <mxPoint x="240" y="620" as="sourcePoint" />
          </mxGeometry>
        </mxCell>
        <mxCell id="FuzomE3j-5ouV37Kwk90-3" value="value" style="shape=image;verticalLabelPosition=bottom;labelBackgroundColor=#ffffff;verticalAlign=top;aspect=fixed;imageAspect=0;image=data:image/svg+xml,PHN2ZyB4bWxucz0iaHR0cDovL3d3dy53My5vcmcvMjAwMC9zdmciIHhtbG5zOmV2PSJodHRwOi8vd3d3LnczLm9yZy8yMDAxL3htbC1ldmVudHMiIHhtbG5zOnhsaW5rPSJodHRwOi8vd3d3LnczLm9yZy8xOTk5L3hsaW5rIiBiYXNlUHJvZmlsZT0iZnVsbCIgaGVpZ2h0PSI0MCIgdmVyc2lvbj0iMS4xIiB3aWR0aD0iNDAiIHZpZXdCb3g9IjAgMCA0MCA0MCI+PGRlZnMvPjxyZWN0IGZpbGw9IiNmZmZmZmYiIGhlaWdodD0iNDAiIHN0cm9rZT0iIzAwMDAwMCIgc3Ryb2tlLXdpZHRoPSIwLjUiIHdpZHRoPSI0MCIgeD0iMCIgeT0iMCIvPjxwb2x5Z29uIGZpbGw9IiNiZmJmYmYiIHBvaW50cz0iMCwxMy4zMzMzMzMzMzMzMzMzMzYgNi42NjY2NjY2NjY2NjY2NjYsMjAuMCAwLDI2LjY2NjY2NjY2NjY2NjY2NCAwLDEzLjMzMzMzMzMzMzMzMzMzNiIgc3Ryb2tlPSJibGFjayIgc3Ryb2tlLXdpZHRoPSIwLjgiLz48cG9seWdvbiBmaWxsPSIjYzQ3MTc5IiBwb2ludHM9IjQwLDEzLjMzMzMzMzMzMzMzMzMzNiAzMy4zMzMzMzMzMzMzMzMzMzYsMjAuMCA0MCwyNi42NjY2NjY2NjY2NjY2NjQgNDAsMTMuMzMzMzMzMzMzMzMzMzM2IiBzdHJva2U9ImJsYWNrIiBzdHJva2Utd2lkdGg9IjAuOCIvPjx0ZXh0IHN0eWxlPSJmb250LXNpemU6OHB4OyBmb250LWZhbWlseTpDb3VyaWVyO2ZvbnQtd2VpZ2h0OmJvbGQ7IiB0ZXh0LWFuY2hvcj0ibWlkZGxlIiB4PSIyMCIgeT0iMjIiPlZhcjwvdGV4dD48cmVjdCBmaWxsPSJub25lIiBoZWlnaHQ9IjQwIiBzdHJva2U9IiMwMDAwMDAiIHN0cm9rZS13aWR0aD0iMS42IiB3aWR0aD0iNDAiIHg9IjAiIHk9IjAiLz48L3N2Zz4=;points=[[0, 0.5], [1, 0.5]];verticalLabelPosition=top;labelBackgroundColor=none;verticalAlign=bottom;aspect=fixed;imageAspect=0;fontFamily=Courier;fontSize=8;labelPosition=center;align=center;spacing=-1;fontStyle=1;syncNodeName=var set;" vertex="1" parent="1">
          <mxGeometry x="200" y="560" width="40" height="40" as="geometry" />
        </mxCell>
        <mxCell id="FuzomE3j-5ouV37Kwk90-10" style="edgeStyle=orthogonalEdgeStyle;rounded=0;orthogonalLoop=1;jettySize=auto;html=1;exitX=1;exitY=0.5;exitDx=0;exitDy=0;entryX=0;entryY=0.5833333333333333;entryDx=0;entryDy=0;endArrow=none;endFill=0;" edge="1" parent="1" source="FuzomE3j-5ouV37Kwk90-7" target="FuzomE3j-5ouV37Kwk90-8">
          <mxGeometry relative="1" as="geometry" />
        </mxCell>
        <mxCell id="FuzomE3j-5ouV37Kwk90-7" value="to$str" style="shape=image;verticalLabelPosition=bottom;labelBackgroundColor=#ffffff;verticalAlign=top;aspect=fixed;imageAspect=0;image=data:image/svg+xml,PHN2ZyB4bWxucz0iaHR0cDovL3d3dy53My5vcmcvMjAwMC9zdmciIHhtbG5zOmV2PSJodHRwOi8vd3d3LnczLm9yZy8yMDAxL3htbC1ldmVudHMiIHhtbG5zOnhsaW5rPSJodHRwOi8vd3d3LnczLm9yZy8xOTk5L3hsaW5rIiBiYXNlUHJvZmlsZT0iZnVsbCIgaGVpZ2h0PSI0MCIgdmVyc2lvbj0iMS4xIiB3aWR0aD0iNDAiIHZpZXdCb3g9IjAgMCA0MCA0MCI+PGRlZnMvPjxyZWN0IGZpbGw9IiNmZmZmZmYiIGhlaWdodD0iNDAiIHN0cm9rZT0iIzAwMDAwMCIgc3Ryb2tlLXdpZHRoPSIwLjUiIHdpZHRoPSI0MCIgeD0iMCIgeT0iMCIvPjxwb2x5Z29uIGZpbGw9IiNiZmJmYmYiIHBvaW50cz0iNDAsMTMuMzMzMzMzMzMzMzMzMzM2IDMzLjMzMzMzMzMzMzMzMzMzNiwyMC4wIDQwLDI2LjY2NjY2NjY2NjY2NjY2NCA0MCwxMy4zMzMzMzMzMzMzMzMzMzYiIHN0cm9rZT0iYmxhY2siIHN0cm9rZS13aWR0aD0iMC44Ii8+PHRleHQgc3R5bGU9ImZvbnQtc2l6ZTo4cHg7IGZvbnQtZmFtaWx5OkNvdXJpZXI7Zm9udC13ZWlnaHQ6Ym9sZDsiIHRleHQtYW5jaG9yPSJtaWRkbGUiIHg9IjIwIiB5PSIyMiI+Q29uc3Q8L3RleHQ+PHJlY3QgZmlsbD0ibm9uZSIgaGVpZ2h0PSI0MCIgc3Ryb2tlPSIjMDAwMDAwIiBzdHJva2Utd2lkdGg9IjEuNiIgd2lkdGg9IjQwIiB4PSIwIiB5PSIwIi8+PC9zdmc+;points=[[1, 0.5]];verticalLabelPosition=top;labelBackgroundColor=none;verticalAlign=bottom;aspect=fixed;imageAspect=0;fontFamily=Courier;fontSize=8;labelPosition=center;align=center;spacing=-1;fontStyle=1;syncNodeName=const;" vertex="1" parent="1">
          <mxGeometry x="280" y="560" width="40" height="40" as="geometry" />
        </mxCell>
        <mxCell id="FuzomE3j-5ouV37Kwk90-21" style="edgeStyle=orthogonalEdgeStyle;rounded=0;orthogonalLoop=1;jettySize=auto;html=1;exitX=1;exitY=0.5;exitDx=0;exitDy=0;entryX=0;entryY=0.6666666666666666;entryDx=0;entryDy=0;endArrow=none;endFill=0;" edge="1" parent="1" source="FuzomE3j-5ouV37Kwk90-8" target="FuzomE3j-5ouV37Kwk90-20">
          <mxGeometry relative="1" as="geometry" />
        </mxCell>
        <mxCell id="FuzomE3j-5ouV37Kwk90-26" style="edgeStyle=orthogonalEdgeStyle;rounded=0;orthogonalLoop=1;jettySize=auto;html=1;exitX=1;exitY=0.5;exitDx=0;exitDy=0;entryX=0;entryY=0.3333333333333333;entryDx=0;entryDy=0;endArrow=none;endFill=0;" edge="1" parent="1" source="FuzomE3j-5ouV37Kwk90-8" target="FuzomE3j-5ouV37Kwk90-20">
          <mxGeometry relative="1" as="geometry" />
        </mxCell>
        <mxCell id="FuzomE3j-5ouV37Kwk90-8" value="" style="shape=image;verticalLabelPosition=bottom;labelBackgroundColor=#ffffff;verticalAlign=top;aspect=fixed;imageAspect=0;image=data:image/svg+xml,PHN2ZyB4bWxucz0iaHR0cDovL3d3dy53My5vcmcvMjAwMC9zdmciIHhtbG5zOmV2PSJodHRwOi8vd3d3LnczLm9yZy8yMDAxL3htbC1ldmVudHMiIHhtbG5zOnhsaW5rPSJodHRwOi8vd3d3LnczLm9yZy8xOTk5L3hsaW5rIiBiYXNlUHJvZmlsZT0iZnVsbCIgaGVpZ2h0PSI0MCIgdmVyc2lvbj0iMS4xIiB3aWR0aD0iNDAiIHZpZXdCb3g9IjAgMCA0MCA0MCI+PGRlZnMvPjxyZWN0IGZpbGw9IiNmZmZmZmYiIGhlaWdodD0iNDAiIHN0cm9rZT0iIzAwMDAwMCIgc3Ryb2tlLXdpZHRoPSIwLjUiIHdpZHRoPSI0MCIgeD0iMCIgeT0iMCIvPjxwb2x5Z29uIGZpbGw9IiNiZmJmYmYiIHBvaW50cz0iMCw2LjY2NjY2NjY2NjY2NjY2NiA2LjY2NjY2NjY2NjY2NjY2Niw2LjY2NjY2NjY2NjY2NjY2NiA2LjY2NjY2NjY2NjY2NjY2NiwzMy4zMzMzMzMzMzMzMzMzMyAwLDMzLjMzMzMzMzMzMzMzMzMzIDAsNi42NjY2NjY2NjY2NjY2NjYiIHN0cm9rZT0iYmxhY2siIHN0cm9rZS13aWR0aD0iMC44Ii8+PHBvbHlnb24gZmlsbD0iI2ExODZiZSIgcG9pbnRzPSI0MCwxMy4zMzMzMzMzMzMzMzMzMzYgMzMuMzMzMzMzMzMzMzMzMzM2LDIwLjAgNDAsMjYuNjY2NjY2NjY2NjY2NjY0IDQwLDEzLjMzMzMzMzMzMzMzMzMzNiIgc3Ryb2tlPSJibGFjayIgc3Ryb2tlLXdpZHRoPSIwLjgiLz48dGV4dCBzdHlsZT0iZm9udC1zaXplOjhweDsgZm9udC1mYW1pbHk6Q291cmllcjtmb250LXdlaWdodDpib2xkOyIgdGV4dC1hbmNob3I9Im1pZGRsZSIgeD0iMjAiIHk9IjIyIj49PC90ZXh0PjxyZWN0IGZpbGw9Im5vbmUiIGhlaWdodD0iNDAiIHN0cm9rZT0iIzAwMDAwMCIgc3Ryb2tlLXdpZHRoPSIxLjYiIHdpZHRoPSI0MCIgeD0iMCIgeT0iMCIvPjwvc3ZnPg==;points=[[0, 0.25], [0, 0.3333333333333333], [0, 0.41666666666666663], [0, 0.5], [0, 0.5833333333333333], [0, 0.6666666666666666], [0, 0.75], [1, 0.5]];verticalLabelPosition=top;labelBackgroundColor=none;verticalAlign=bottom;aspect=fixed;imageAspect=0;fontFamily=Courier;fontSize=8;labelPosition=center;align=center;spacing=-1;fontStyle=1;syncNodeName=equal;" vertex="1" parent="1">
          <mxGeometry x="360" y="520" width="40" height="40" as="geometry" />
        </mxCell>
        <mxCell id="FuzomE3j-5ouV37Kwk90-32" style="edgeStyle=orthogonalEdgeStyle;rounded=0;orthogonalLoop=1;jettySize=auto;html=1;exitX=1;exitY=0.5;exitDx=0;exitDy=0;entryX=0;entryY=0.6666666666666666;entryDx=0;entryDy=0;endArrow=none;endFill=0;" edge="1" parent="1" source="FuzomE3j-5ouV37Kwk90-18" target="FuzomE3j-5ouV37Kwk90-27">
          <mxGeometry relative="1" as="geometry" />
        </mxCell>
        <mxCell id="FuzomE3j-5ouV37Kwk90-18" value="" style="shape=image;verticalLabelPosition=bottom;labelBackgroundColor=#ffffff;verticalAlign=top;aspect=fixed;imageAspect=0;image=data:image/svg+xml,PHN2ZyB4bWxucz0iaHR0cDovL3d3dy53My5vcmcvMjAwMC9zdmciIHhtbG5zOmV2PSJodHRwOi8vd3d3LnczLm9yZy8yMDAxL3htbC1ldmVudHMiIHhtbG5zOnhsaW5rPSJodHRwOi8vd3d3LnczLm9yZy8xOTk5L3hsaW5rIiBiYXNlUHJvZmlsZT0iZnVsbCIgaGVpZ2h0PSI0MCIgdmVyc2lvbj0iMS4xIiB3aWR0aD0iNDAiIHZpZXdCb3g9IjAgMCA0MCA0MCI+PGRlZnMvPjxyZWN0IGZpbGw9IiNmZmZmZmYiIGhlaWdodD0iNDAiIHN0cm9rZT0iIzAwMDAwMCIgc3Ryb2tlLXdpZHRoPSIwLjUiIHdpZHRoPSI0MCIgeD0iMCIgeT0iMCIvPjxwb2x5Z29uIGZpbGw9IiM4OGQxYzkiIHBvaW50cz0iMCw2LjY2NjY2NjY2NjY2NjY2NiA2LjY2NjY2NjY2NjY2NjY2NiwxMy4zMzMzMzMzMzMzMzMzMzIgMCwyMC4wIDAsNi42NjY2NjY2NjY2NjY2NjYiIHN0cm9rZT0iYmxhY2siIHN0cm9rZS13aWR0aD0iMC44Ii8+PHBvbHlnb24gZmlsbD0iIzg4ZDFjOSIgcG9pbnRzPSIwLDIwLjAgNi42NjY2NjY2NjY2NjY2NjYsMjYuNjY2NjY2NjY2NjY2NjY0IDAsMzMuMzMzMzMzMzMzMzMzMzMgMCwyMC4wIiBzdHJva2U9ImJsYWNrIiBzdHJva2Utd2lkdGg9IjAuOCIvPjxwb2x5Z29uIGZpbGw9IiM4OGQxYzkiIHBvaW50cz0iNDAsMTMuMzMzMzMzMzMzMzMzMzM2IDMzLjMzMzMzMzMzMzMzMzMzNiwyMC4wIDQwLDI2LjY2NjY2NjY2NjY2NjY2NCA0MCwxMy4zMzMzMzMzMzMzMzMzMzYiIHN0cm9rZT0iYmxhY2siIHN0cm9rZS13aWR0aD0iMC44Ii8+PHRleHQgc3R5bGU9ImZvbnQtc2l6ZTo4cHg7IGZvbnQtZmFtaWx5OkNvdXJpZXI7Zm9udC13ZWlnaHQ6Ym9sZDsiIHRleHQtYW5jaG9yPSJtaWRkbGUiIHg9IjIwIiB5PSIyMiI+JTwvdGV4dD48cmVjdCBmaWxsPSJub25lIiBoZWlnaHQ9IjQwIiBzdHJva2U9IiMwMDAwMDAiIHN0cm9rZS13aWR0aD0iMS42IiB3aWR0aD0iNDAiIHg9IjAiIHk9IjAiLz48L3N2Zz4=;points=[[0, 0.3333333333333333], [0, 0.6666666666666666], [1, 0.5]];verticalLabelPosition=top;labelBackgroundColor=none;verticalAlign=bottom;aspect=fixed;imageAspect=0;fontFamily=Courier;fontSize=8;labelPosition=center;align=center;spacing=-1;fontStyle=1;syncNodeName=mod;" vertex="1" parent="1">
          <mxGeometry x="600" y="400" width="40" height="40" as="geometry" />
        </mxCell>
        <mxCell id="FuzomE3j-5ouV37Kwk90-25" style="edgeStyle=orthogonalEdgeStyle;rounded=0;orthogonalLoop=1;jettySize=auto;html=1;exitX=1;exitY=0.5;exitDx=0;exitDy=0;entryX=0;entryY=0.3333333333333333;entryDx=0;entryDy=0;endArrow=none;endFill=0;" edge="1" parent="1" source="FuzomE3j-5ouV37Kwk90-19" target="FuzomE3j-5ouV37Kwk90-18">
          <mxGeometry relative="1" as="geometry" />
        </mxCell>
        <mxCell id="FuzomE3j-5ouV37Kwk90-19" value="value" style="shape=image;verticalLabelPosition=bottom;labelBackgroundColor=#ffffff;verticalAlign=top;aspect=fixed;imageAspect=0;image=data:image/svg+xml,PHN2ZyB4bWxucz0iaHR0cDovL3d3dy53My5vcmcvMjAwMC9zdmciIHhtbG5zOmV2PSJodHRwOi8vd3d3LnczLm9yZy8yMDAxL3htbC1ldmVudHMiIHhtbG5zOnhsaW5rPSJodHRwOi8vd3d3LnczLm9yZy8xOTk5L3hsaW5rIiBiYXNlUHJvZmlsZT0iZnVsbCIgaGVpZ2h0PSI0MCIgdmVyc2lvbj0iMS4xIiB3aWR0aD0iNDAiIHZpZXdCb3g9IjAgMCA0MCA0MCI+PGRlZnMvPjxyZWN0IGZpbGw9IiNmZmZmZmYiIGhlaWdodD0iNDAiIHN0cm9rZT0iIzAwMDAwMCIgc3Ryb2tlLXdpZHRoPSIwLjUiIHdpZHRoPSI0MCIgeD0iMCIgeT0iMCIvPjxwb2x5Z29uIGZpbGw9IiNjNDcxNzkiIHBvaW50cz0iMCwxMy4zMzMzMzMzMzMzMzMzMzYgNi42NjY2NjY2NjY2NjY2NjYsMjAuMCAwLDI2LjY2NjY2NjY2NjY2NjY2NCAwLDEzLjMzMzMzMzMzMzMzMzMzNiIgc3Ryb2tlPSJibGFjayIgc3Ryb2tlLXdpZHRoPSIwLjgiLz48cG9seWdvbiBmaWxsPSIjYmZiZmJmIiBwb2ludHM9IjQwLDEzLjMzMzMzMzMzMzMzMzMzNiAzMy4zMzMzMzMzMzMzMzMzMzYsMjAuMCA0MCwyNi42NjY2NjY2NjY2NjY2NjQgNDAsMTMuMzMzMzMzMzMzMzMzMzM2IiBzdHJva2U9ImJsYWNrIiBzdHJva2Utd2lkdGg9IjAuOCIvPjx0ZXh0IHN0eWxlPSJmb250LXNpemU6OHB4OyBmb250LWZhbWlseTpDb3VyaWVyO2ZvbnQtd2VpZ2h0OmJvbGQ7IiB0ZXh0LWFuY2hvcj0ibWlkZGxlIiB4PSIyMCIgeT0iMjIiPlZhcjwvdGV4dD48cmVjdCBmaWxsPSJub25lIiBoZWlnaHQ9IjQwIiBzdHJva2U9IiMwMDAwMDAiIHN0cm9rZS13aWR0aD0iMS42IiB3aWR0aD0iNDAiIHg9IjAiIHk9IjAiLz48L3N2Zz4=;points=[[0, 0.5], [1, 0.5]];verticalLabelPosition=top;labelBackgroundColor=none;verticalAlign=bottom;aspect=fixed;imageAspect=0;fontFamily=Courier;fontSize=8;labelPosition=center;align=center;spacing=-1;fontStyle=1;syncNodeName=var get;" vertex="1" parent="1">
          <mxGeometry x="520" y="360" width="40" height="40" as="geometry" />
        </mxCell>
        <mxCell id="FuzomE3j-5ouV37Kwk90-22" style="edgeStyle=orthogonalEdgeStyle;rounded=0;orthogonalLoop=1;jettySize=auto;html=1;exitX=1;exitY=0.3333333333333333;exitDx=0;exitDy=0;entryX=0;entryY=0.5;entryDx=0;entryDy=0;endArrow=none;endFill=0;" edge="1" parent="1" source="FuzomE3j-5ouV37Kwk90-20" target="FuzomE3j-5ouV37Kwk90-19">
          <mxGeometry relative="1" as="geometry" />
        </mxCell>
        <mxCell id="FuzomE3j-5ouV37Kwk90-52" style="edgeStyle=orthogonalEdgeStyle;rounded=0;orthogonalLoop=1;jettySize=auto;html=1;exitX=1;exitY=0.6666666666666666;exitDx=0;exitDy=0;entryX=0;entryY=0.5;entryDx=0;entryDy=0;endArrow=none;endFill=0;" edge="1" parent="1" source="FuzomE3j-5ouV37Kwk90-20" target="FuzomE3j-5ouV37Kwk90-49">
          <mxGeometry relative="1" as="geometry" />
        </mxCell>
        <mxCell id="FuzomE3j-5ouV37Kwk90-20" value="" style="shape=image;verticalLabelPosition=bottom;labelBackgroundColor=#ffffff;verticalAlign=top;aspect=fixed;imageAspect=0;image=data:image/svg+xml,PHN2ZyB4bWxucz0iaHR0cDovL3d3dy53My5vcmcvMjAwMC9zdmciIHhtbG5zOmV2PSJodHRwOi8vd3d3LnczLm9yZy8yMDAxL3htbC1ldmVudHMiIHhtbG5zOnhsaW5rPSJodHRwOi8vd3d3LnczLm9yZy8xOTk5L3hsaW5rIiBiYXNlUHJvZmlsZT0iZnVsbCIgaGVpZ2h0PSI0MCIgdmVyc2lvbj0iMS4xIiB3aWR0aD0iNDAiIHZpZXdCb3g9IjAgMCA0MCA0MCI+PGRlZnMvPjxyZWN0IGZpbGw9IiNmZmZmZmYiIGhlaWdodD0iNDAiIHN0cm9rZT0iIzAwMDAwMCIgc3Ryb2tlLXdpZHRoPSIwLjUiIHdpZHRoPSI0MCIgeD0iMCIgeT0iMCIvPjxwb2x5Z29uIGZpbGw9IiNjNDcxNzkiIHBvaW50cz0iMCw2LjY2NjY2NjY2NjY2NjY2NiA2LjY2NjY2NjY2NjY2NjY2NiwxMy4zMzMzMzMzMzMzMzMzMzIgMCwyMC4wIDAsNi42NjY2NjY2NjY2NjY2NjYiIHN0cm9rZT0iYmxhY2siIHN0cm9rZS13aWR0aD0iMC44Ii8+PHBvbHlnb24gZmlsbD0iI2ExODZiZSIgcG9pbnRzPSIwLDIwLjAgNi42NjY2NjY2NjY2NjY2NjYsMjYuNjY2NjY2NjY2NjY2NjY0IDAsMzMuMzMzMzMzMzMzMzMzMzMgMCwyMC4wIiBzdHJva2U9ImJsYWNrIiBzdHJva2Utd2lkdGg9IjAuOCIvPjxwb2x5Z29uIGZpbGw9IiNjNDcxNzkiIHBvaW50cz0iNDAsNi42NjY2NjY2NjY2NjY2NjYgMzMuMzMzMzMzMzMzMzMzMzM2LDEzLjMzMzMzMzMzMzMzMzMzMiA0MCwyMC4wIDQwLDYuNjY2NjY2NjY2NjY2NjY2IiBzdHJva2U9ImJsYWNrIiBzdHJva2Utd2lkdGg9IjAuOCIvPjxwb2x5Z29uIGZpbGw9IiNjNDcxNzkiIHBvaW50cz0iNDAsMjAuMCAzMy4zMzMzMzMzMzMzMzMzMzYsMjYuNjY2NjY2NjY2NjY2NjY0IDQwLDMzLjMzMzMzMzMzMzMzMzMzIDQwLDIwLjAiIHN0cm9rZT0iYmxhY2siIHN0cm9rZS13aWR0aD0iMC44Ii8+PHRleHQgc3R5bGU9ImZvbnQtc2l6ZTo4cHg7IGZvbnQtZmFtaWx5OkNvdXJpZXI7Zm9udC13ZWlnaHQ6Ym9sZDsiIHRleHQtYW5jaG9yPSJtaWRkbGUiIHg9IjIwIiB5PSIyMiI+SWY8L3RleHQ+PHJlY3QgZmlsbD0ibm9uZSIgaGVpZ2h0PSI0MCIgc3Ryb2tlPSIjMDAwMDAwIiBzdHJva2Utd2lkdGg9IjEuNiIgd2lkdGg9IjQwIiB4PSIwIiB5PSIwIi8+PC9zdmc+;points=[[0, 0.3333333333333333], [0, 0.6666666666666666], [1, 0.3333333333333333], [1, 0.6666666666666666]];verticalLabelPosition=top;labelBackgroundColor=none;verticalAlign=bottom;aspect=fixed;imageAspect=0;fontFamily=Courier;fontSize=8;labelPosition=center;align=center;spacing=-1;fontStyle=1;syncNodeName=if;" vertex="1" parent="1">
          <mxGeometry x="440" y="480" width="40" height="40" as="geometry" />
        </mxCell>
        <mxCell id="FuzomE3j-5ouV37Kwk90-24" style="edgeStyle=orthogonalEdgeStyle;rounded=0;orthogonalLoop=1;jettySize=auto;html=1;exitX=1;exitY=0.5;exitDx=0;exitDy=0;entryX=0;entryY=0.6666666666666666;entryDx=0;entryDy=0;endArrow=none;endFill=0;" edge="1" parent="1" source="FuzomE3j-5ouV37Kwk90-23" target="FuzomE3j-5ouV37Kwk90-18">
          <mxGeometry relative="1" as="geometry" />
        </mxCell>
        <mxCell id="FuzomE3j-5ouV37Kwk90-23" value="8" style="shape=image;verticalLabelPosition=bottom;labelBackgroundColor=#ffffff;verticalAlign=top;aspect=fixed;imageAspect=0;image=data:image/svg+xml,PHN2ZyB4bWxucz0iaHR0cDovL3d3dy53My5vcmcvMjAwMC9zdmciIHhtbG5zOmV2PSJodHRwOi8vd3d3LnczLm9yZy8yMDAxL3htbC1ldmVudHMiIHhtbG5zOnhsaW5rPSJodHRwOi8vd3d3LnczLm9yZy8xOTk5L3hsaW5rIiBiYXNlUHJvZmlsZT0iZnVsbCIgaGVpZ2h0PSI0MCIgdmVyc2lvbj0iMS4xIiB3aWR0aD0iNDAiIHZpZXdCb3g9IjAgMCA0MCA0MCI+PGRlZnMvPjxyZWN0IGZpbGw9IiNmZmZmZmYiIGhlaWdodD0iNDAiIHN0cm9rZT0iIzAwMDAwMCIgc3Ryb2tlLXdpZHRoPSIwLjUiIHdpZHRoPSI0MCIgeD0iMCIgeT0iMCIvPjxwb2x5Z29uIGZpbGw9IiNiZmJmYmYiIHBvaW50cz0iNDAsMTMuMzMzMzMzMzMzMzMzMzM2IDMzLjMzMzMzMzMzMzMzMzMzNiwyMC4wIDQwLDI2LjY2NjY2NjY2NjY2NjY2NCA0MCwxMy4zMzMzMzMzMzMzMzMzMzYiIHN0cm9rZT0iYmxhY2siIHN0cm9rZS13aWR0aD0iMC44Ii8+PHRleHQgc3R5bGU9ImZvbnQtc2l6ZTo4cHg7IGZvbnQtZmFtaWx5OkNvdXJpZXI7Zm9udC13ZWlnaHQ6Ym9sZDsiIHRleHQtYW5jaG9yPSJtaWRkbGUiIHg9IjIwIiB5PSIyMiI+Q29uc3Q8L3RleHQ+PHJlY3QgZmlsbD0ibm9uZSIgaGVpZ2h0PSI0MCIgc3Ryb2tlPSIjMDAwMDAwIiBzdHJva2Utd2lkdGg9IjEuNiIgd2lkdGg9IjQwIiB4PSIwIiB5PSIwIi8+PC9zdmc+;points=[[1, 0.5]];verticalLabelPosition=top;labelBackgroundColor=none;verticalAlign=bottom;aspect=fixed;imageAspect=0;fontFamily=Courier;fontSize=8;labelPosition=center;align=center;spacing=-1;fontStyle=1;syncNodeName=const;" vertex="1" parent="1">
          <mxGeometry x="520" y="440" width="40" height="40" as="geometry" />
        </mxCell>
        <mxCell id="FuzomE3j-5ouV37Kwk90-33" style="edgeStyle=orthogonalEdgeStyle;rounded=0;orthogonalLoop=1;jettySize=auto;html=1;exitX=1;exitY=0.5;exitDx=0;exitDy=0;entryX=0;entryY=0.6666666666666666;entryDx=0;entryDy=0;endArrow=none;endFill=0;" edge="1" parent="1" source="FuzomE3j-5ouV37Kwk90-27" target="FuzomE3j-5ouV37Kwk90-29">
          <mxGeometry relative="1" as="geometry" />
        </mxCell>
        <mxCell id="FuzomE3j-5ouV37Kwk90-34" style="edgeStyle=orthogonalEdgeStyle;rounded=0;orthogonalLoop=1;jettySize=auto;html=1;exitX=1;exitY=0.5;exitDx=0;exitDy=0;entryX=0;entryY=0.3333333333333333;entryDx=0;entryDy=0;endArrow=none;endFill=0;" edge="1" parent="1" source="FuzomE3j-5ouV37Kwk90-27" target="FuzomE3j-5ouV37Kwk90-29">
          <mxGeometry relative="1" as="geometry" />
        </mxCell>
        <mxCell id="FuzomE3j-5ouV37Kwk90-27" value="" style="shape=image;verticalLabelPosition=bottom;labelBackgroundColor=#ffffff;verticalAlign=top;aspect=fixed;imageAspect=0;image=data:image/svg+xml,PHN2ZyB4bWxucz0iaHR0cDovL3d3dy53My5vcmcvMjAwMC9zdmciIHhtbG5zOmV2PSJodHRwOi8vd3d3LnczLm9yZy8yMDAxL3htbC1ldmVudHMiIHhtbG5zOnhsaW5rPSJodHRwOi8vd3d3LnczLm9yZy8xOTk5L3hsaW5rIiBiYXNlUHJvZmlsZT0iZnVsbCIgaGVpZ2h0PSI0MCIgdmVyc2lvbj0iMS4xIiB3aWR0aD0iNDAiIHZpZXdCb3g9IjAgMCA0MCA0MCI+PGRlZnMvPjxyZWN0IGZpbGw9IiNmZmZmZmYiIGhlaWdodD0iNDAiIHN0cm9rZT0iIzAwMDAwMCIgc3Ryb2tlLXdpZHRoPSIwLjUiIHdpZHRoPSI0MCIgeD0iMCIgeT0iMCIvPjxwb2x5Z29uIGZpbGw9IiNiZmJmYmYiIHBvaW50cz0iMCw2LjY2NjY2NjY2NjY2NjY2NiA2LjY2NjY2NjY2NjY2NjY2Niw2LjY2NjY2NjY2NjY2NjY2NiA2LjY2NjY2NjY2NjY2NjY2NiwzMy4zMzMzMzMzMzMzMzMzMyAwLDMzLjMzMzMzMzMzMzMzMzMzIDAsNi42NjY2NjY2NjY2NjY2NjYiIHN0cm9rZT0iYmxhY2siIHN0cm9rZS13aWR0aD0iMC44Ii8+PHBvbHlnb24gZmlsbD0iI2ExODZiZSIgcG9pbnRzPSI0MCwxMy4zMzMzMzMzMzMzMzMzMzYgMzMuMzMzMzMzMzMzMzMzMzM2LDIwLjAgNDAsMjYuNjY2NjY2NjY2NjY2NjY0IDQwLDEzLjMzMzMzMzMzMzMzMzMzNiIgc3Ryb2tlPSJibGFjayIgc3Ryb2tlLXdpZHRoPSIwLjgiLz48dGV4dCBzdHlsZT0iZm9udC1zaXplOjhweDsgZm9udC1mYW1pbHk6Q291cmllcjtmb250LXdlaWdodDpib2xkOyIgdGV4dC1hbmNob3I9Im1pZGRsZSIgeD0iMjAiIHk9IjIyIj49PC90ZXh0PjxyZWN0IGZpbGw9Im5vbmUiIGhlaWdodD0iNDAiIHN0cm9rZT0iIzAwMDAwMCIgc3Ryb2tlLXdpZHRoPSIxLjYiIHdpZHRoPSI0MCIgeD0iMCIgeT0iMCIvPjwvc3ZnPg==;points=[[0, 0.25], [0, 0.3333333333333333], [0, 0.41666666666666663], [0, 0.5], [0, 0.5833333333333333], [0, 0.6666666666666666], [0, 0.75], [1, 0.5]];verticalLabelPosition=top;labelBackgroundColor=none;verticalAlign=bottom;aspect=fixed;imageAspect=0;fontFamily=Courier;fontSize=8;labelPosition=center;align=center;spacing=-1;fontStyle=1;syncNodeName=equal;" vertex="1" parent="1">
          <mxGeometry x="680" y="360" width="40" height="40" as="geometry" />
        </mxCell>
        <mxCell id="FuzomE3j-5ouV37Kwk90-44" style="edgeStyle=orthogonalEdgeStyle;rounded=0;orthogonalLoop=1;jettySize=auto;html=1;exitX=1;exitY=0.5;exitDx=0;exitDy=0;entryX=0;entryY=0.5;entryDx=0;entryDy=0;endArrow=none;endFill=0;" edge="1" parent="1" source="FuzomE3j-5ouV37Kwk90-28" target="FuzomE3j-5ouV37Kwk90-43">
          <mxGeometry relative="1" as="geometry" />
        </mxCell>
        <mxCell id="FuzomE3j-5ouV37Kwk90-28" value="" style="shape=image;verticalLabelPosition=bottom;labelBackgroundColor=#ffffff;verticalAlign=top;aspect=fixed;imageAspect=0;image=data:image/svg+xml,PHN2ZyB4bWxucz0iaHR0cDovL3d3dy53My5vcmcvMjAwMC9zdmciIHhtbG5zOmV2PSJodHRwOi8vd3d3LnczLm9yZy8yMDAxL3htbC1ldmVudHMiIHhtbG5zOnhsaW5rPSJodHRwOi8vd3d3LnczLm9yZy8xOTk5L3hsaW5rIiBiYXNlUHJvZmlsZT0iZnVsbCIgaGVpZ2h0PSI0MCIgdmVyc2lvbj0iMS4xIiB3aWR0aD0iNDAiIHZpZXdCb3g9IjAgMCA0MCA0MCI+PGRlZnMvPjxyZWN0IGZpbGw9IiNmZmZmZmYiIGhlaWdodD0iNDAiIHN0cm9rZT0iIzAwMDAwMCIgc3Ryb2tlLXdpZHRoPSIwLjUiIHdpZHRoPSI0MCIgeD0iMCIgeT0iMCIvPjxwb2x5Z29uIGZpbGw9IiM4OGQxYzkiIHBvaW50cz0iMCw2LjY2NjY2NjY2NjY2NjY2NiA2LjY2NjY2NjY2NjY2NjY2NiwxMy4zMzMzMzMzMzMzMzMzMzIgMCwyMC4wIDAsNi42NjY2NjY2NjY2NjY2NjYiIHN0cm9rZT0iYmxhY2siIHN0cm9rZS13aWR0aD0iMC44Ii8+PHBvbHlnb24gZmlsbD0iIzg4ZDFjOSIgcG9pbnRzPSIwLDIwLjAgNi42NjY2NjY2NjY2NjY2NjYsMjYuNjY2NjY2NjY2NjY2NjY0IDAsMzMuMzMzMzMzMzMzMzMzMzMgMCwyMC4wIiBzdHJva2U9ImJsYWNrIiBzdHJva2Utd2lkdGg9IjAuOCIvPjxwb2x5Z29uIGZpbGw9IiM4OGQxYzkiIHBvaW50cz0iNDAsMTMuMzMzMzMzMzMzMzMzMzM2IDMzLjMzMzMzMzMzMzMzMzMzNiwyMC4wIDQwLDI2LjY2NjY2NjY2NjY2NjY2NCA0MCwxMy4zMzMzMzMzMzMzMzMzMzYiIHN0cm9rZT0iYmxhY2siIHN0cm9rZS13aWR0aD0iMC44Ii8+PHRleHQgc3R5bGU9ImZvbnQtc2l6ZTo4cHg7IGZvbnQtZmFtaWx5OkNvdXJpZXI7Zm9udC13ZWlnaHQ6Ym9sZDsiIHRleHQtYW5jaG9yPSJtaWRkbGUiIHg9IjIwIiB5PSIyMiI+LzwvdGV4dD48cmVjdCBmaWxsPSJub25lIiBoZWlnaHQ9IjQwIiBzdHJva2U9IiMwMDAwMDAiIHN0cm9rZS13aWR0aD0iMS42IiB3aWR0aD0iNDAiIHg9IjAiIHk9IjAiLz48L3N2Zz4=;points=[[0, 0.3333333333333333], [0, 0.6666666666666666], [1, 0.5]];verticalLabelPosition=top;labelBackgroundColor=none;verticalAlign=bottom;aspect=fixed;imageAspect=0;fontFamily=Courier;fontSize=8;labelPosition=center;align=center;spacing=-1;fontStyle=1;syncNodeName=division;" vertex="1" parent="1">
          <mxGeometry x="920" y="320" width="40" height="40" as="geometry" />
        </mxCell>
        <mxCell id="FuzomE3j-5ouV37Kwk90-36" style="edgeStyle=orthogonalEdgeStyle;rounded=0;orthogonalLoop=1;jettySize=auto;html=1;exitX=1;exitY=0.6666666666666666;exitDx=0;exitDy=0;entryX=0;entryY=0.5;entryDx=0;entryDy=0;endArrow=none;endFill=0;" edge="1" parent="1" source="FuzomE3j-5ouV37Kwk90-29" target="FuzomE3j-5ouV37Kwk90-35">
          <mxGeometry relative="1" as="geometry" />
        </mxCell>
        <mxCell id="FuzomE3j-5ouV37Kwk90-42" style="edgeStyle=orthogonalEdgeStyle;rounded=0;orthogonalLoop=1;jettySize=auto;html=1;exitX=1;exitY=0.3333333333333333;exitDx=0;exitDy=0;entryX=0;entryY=0.5;entryDx=0;entryDy=0;endArrow=none;endFill=0;" edge="1" parent="1" source="FuzomE3j-5ouV37Kwk90-29" target="FuzomE3j-5ouV37Kwk90-39">
          <mxGeometry relative="1" as="geometry" />
        </mxCell>
        <mxCell id="FuzomE3j-5ouV37Kwk90-29" value="" style="shape=image;verticalLabelPosition=bottom;labelBackgroundColor=#ffffff;verticalAlign=top;aspect=fixed;imageAspect=0;image=data:image/svg+xml,PHN2ZyB4bWxucz0iaHR0cDovL3d3dy53My5vcmcvMjAwMC9zdmciIHhtbG5zOmV2PSJodHRwOi8vd3d3LnczLm9yZy8yMDAxL3htbC1ldmVudHMiIHhtbG5zOnhsaW5rPSJodHRwOi8vd3d3LnczLm9yZy8xOTk5L3hsaW5rIiBiYXNlUHJvZmlsZT0iZnVsbCIgaGVpZ2h0PSI0MCIgdmVyc2lvbj0iMS4xIiB3aWR0aD0iNDAiIHZpZXdCb3g9IjAgMCA0MCA0MCI+PGRlZnMvPjxyZWN0IGZpbGw9IiNmZmZmZmYiIGhlaWdodD0iNDAiIHN0cm9rZT0iIzAwMDAwMCIgc3Ryb2tlLXdpZHRoPSIwLjUiIHdpZHRoPSI0MCIgeD0iMCIgeT0iMCIvPjxwb2x5Z29uIGZpbGw9IiNjNDcxNzkiIHBvaW50cz0iMCw2LjY2NjY2NjY2NjY2NjY2NiA2LjY2NjY2NjY2NjY2NjY2NiwxMy4zMzMzMzMzMzMzMzMzMzIgMCwyMC4wIDAsNi42NjY2NjY2NjY2NjY2NjYiIHN0cm9rZT0iYmxhY2siIHN0cm9rZS13aWR0aD0iMC44Ii8+PHBvbHlnb24gZmlsbD0iI2ExODZiZSIgcG9pbnRzPSIwLDIwLjAgNi42NjY2NjY2NjY2NjY2NjYsMjYuNjY2NjY2NjY2NjY2NjY0IDAsMzMuMzMzMzMzMzMzMzMzMzMgMCwyMC4wIiBzdHJva2U9ImJsYWNrIiBzdHJva2Utd2lkdGg9IjAuOCIvPjxwb2x5Z29uIGZpbGw9IiNjNDcxNzkiIHBvaW50cz0iNDAsNi42NjY2NjY2NjY2NjY2NjYgMzMuMzMzMzMzMzMzMzMzMzM2LDEzLjMzMzMzMzMzMzMzMzMzMiA0MCwyMC4wIDQwLDYuNjY2NjY2NjY2NjY2NjY2IiBzdHJva2U9ImJsYWNrIiBzdHJva2Utd2lkdGg9IjAuOCIvPjxwb2x5Z29uIGZpbGw9IiNjNDcxNzkiIHBvaW50cz0iNDAsMjAuMCAzMy4zMzMzMzMzMzMzMzMzMzYsMjYuNjY2NjY2NjY2NjY2NjY0IDQwLDMzLjMzMzMzMzMzMzMzMzMzIDQwLDIwLjAiIHN0cm9rZT0iYmxhY2siIHN0cm9rZS13aWR0aD0iMC44Ii8+PHRleHQgc3R5bGU9ImZvbnQtc2l6ZTo4cHg7IGZvbnQtZmFtaWx5OkNvdXJpZXI7Zm9udC13ZWlnaHQ6Ym9sZDsiIHRleHQtYW5jaG9yPSJtaWRkbGUiIHg9IjIwIiB5PSIyMiI+SWY8L3RleHQ+PHJlY3QgZmlsbD0ibm9uZSIgaGVpZ2h0PSI0MCIgc3Ryb2tlPSIjMDAwMDAwIiBzdHJva2Utd2lkdGg9IjEuNiIgd2lkdGg9IjQwIiB4PSIwIiB5PSIwIi8+PC9zdmc+;points=[[0, 0.3333333333333333], [0, 0.6666666666666666], [1, 0.3333333333333333], [1, 0.6666666666666666]];verticalLabelPosition=top;labelBackgroundColor=none;verticalAlign=bottom;aspect=fixed;imageAspect=0;fontFamily=Courier;fontSize=8;labelPosition=center;align=center;spacing=-1;fontStyle=1;syncNodeName=if;" vertex="1" parent="1">
          <mxGeometry x="760" y="400" width="40" height="40" as="geometry" />
        </mxCell>
        <mxCell id="FuzomE3j-5ouV37Kwk90-31" style="edgeStyle=orthogonalEdgeStyle;rounded=0;orthogonalLoop=1;jettySize=auto;html=1;exitX=1;exitY=0.5;exitDx=0;exitDy=0;entryX=0;entryY=0.3333333333333333;entryDx=0;entryDy=0;endArrow=none;endFill=0;" edge="1" parent="1" source="FuzomE3j-5ouV37Kwk90-30" target="FuzomE3j-5ouV37Kwk90-27">
          <mxGeometry relative="1" as="geometry" />
        </mxCell>
        <mxCell id="FuzomE3j-5ouV37Kwk90-30" value="0" style="shape=image;verticalLabelPosition=bottom;labelBackgroundColor=#ffffff;verticalAlign=top;aspect=fixed;imageAspect=0;image=data:image/svg+xml,PHN2ZyB4bWxucz0iaHR0cDovL3d3dy53My5vcmcvMjAwMC9zdmciIHhtbG5zOmV2PSJodHRwOi8vd3d3LnczLm9yZy8yMDAxL3htbC1ldmVudHMiIHhtbG5zOnhsaW5rPSJodHRwOi8vd3d3LnczLm9yZy8xOTk5L3hsaW5rIiBiYXNlUHJvZmlsZT0iZnVsbCIgaGVpZ2h0PSI0MCIgdmVyc2lvbj0iMS4xIiB3aWR0aD0iNDAiIHZpZXdCb3g9IjAgMCA0MCA0MCI+PGRlZnMvPjxyZWN0IGZpbGw9IiNmZmZmZmYiIGhlaWdodD0iNDAiIHN0cm9rZT0iIzAwMDAwMCIgc3Ryb2tlLXdpZHRoPSIwLjUiIHdpZHRoPSI0MCIgeD0iMCIgeT0iMCIvPjxwb2x5Z29uIGZpbGw9IiNiZmJmYmYiIHBvaW50cz0iNDAsMTMuMzMzMzMzMzMzMzMzMzM2IDMzLjMzMzMzMzMzMzMzMzMzNiwyMC4wIDQwLDI2LjY2NjY2NjY2NjY2NjY2NCA0MCwxMy4zMzMzMzMzMzMzMzMzMzYiIHN0cm9rZT0iYmxhY2siIHN0cm9rZS13aWR0aD0iMC44Ii8+PHRleHQgc3R5bGU9ImZvbnQtc2l6ZTo4cHg7IGZvbnQtZmFtaWx5OkNvdXJpZXI7Zm9udC13ZWlnaHQ6Ym9sZDsiIHRleHQtYW5jaG9yPSJtaWRkbGUiIHg9IjIwIiB5PSIyMiI+Q29uc3Q8L3RleHQ+PHJlY3QgZmlsbD0ibm9uZSIgaGVpZ2h0PSI0MCIgc3Ryb2tlPSIjMDAwMDAwIiBzdHJva2Utd2lkdGg9IjEuNiIgd2lkdGg9IjQwIiB4PSIwIiB5PSIwIi8+PC9zdmc+;points=[[1, 0.5]];verticalLabelPosition=top;labelBackgroundColor=none;verticalAlign=bottom;aspect=fixed;imageAspect=0;fontFamily=Courier;fontSize=8;labelPosition=center;align=center;spacing=-1;fontStyle=1;syncNodeName=const;" vertex="1" parent="1">
          <mxGeometry x="600" y="320" width="40" height="40" as="geometry" />
        </mxCell>
        <mxCell id="FuzomE3j-5ouV37Kwk90-35" value="Wrong input" style="shape=image;verticalLabelPosition=bottom;labelBackgroundColor=#ffffff;verticalAlign=top;aspect=fixed;imageAspect=0;image=data:image/svg+xml,PHN2ZyB4bWxucz0iaHR0cDovL3d3dy53My5vcmcvMjAwMC9zdmciIHhtbG5zOmV2PSJodHRwOi8vd3d3LnczLm9yZy8yMDAxL3htbC1ldmVudHMiIHhtbG5zOnhsaW5rPSJodHRwOi8vd3d3LnczLm9yZy8xOTk5L3hsaW5rIiBiYXNlUHJvZmlsZT0iZnVsbCIgaGVpZ2h0PSI0MCIgdmVyc2lvbj0iMS4xIiB3aWR0aD0iNDAiIHZpZXdCb3g9IjAgMCA0MCA0MCI+PGRlZnMvPjxyZWN0IGZpbGw9IiNmZmZmZmYiIGhlaWdodD0iNDAiIHN0cm9rZT0iIzAwMDAwMCIgc3Ryb2tlLXdpZHRoPSIwLjUiIHdpZHRoPSI0MCIgeD0iMCIgeT0iMCIvPjxwb2x5Z29uIGZpbGw9IiNjNDcxNzkiIHBvaW50cz0iMCwxMy4zMzMzMzMzMzMzMzMzMzYgNi42NjY2NjY2NjY2NjY2NjYsMjAuMCAwLDI2LjY2NjY2NjY2NjY2NjY2NCAwLDEzLjMzMzMzMzMzMzMzMzMzNiIgc3Ryb2tlPSJibGFjayIgc3Ryb2tlLXdpZHRoPSIwLjgiLz48dGV4dCBzdHlsZT0iZm9udC1zaXplOjhweDsgZm9udC1mYW1pbHk6Q291cmllcjtmb250LXdlaWdodDpib2xkOyIgdGV4dC1hbmNob3I9Im1pZGRsZSIgeD0iMjAiIHk9IjIyIj5FcnI8L3RleHQ+PHJlY3QgZmlsbD0ibm9uZSIgaGVpZ2h0PSI0MCIgc3Ryb2tlPSIjMDAwMDAwIiBzdHJva2Utd2lkdGg9IjEuNiIgd2lkdGg9IjQwIiB4PSIwIiB5PSIwIi8+PC9zdmc+;points=[[0, 0.5]];verticalLabelPosition=top;labelBackgroundColor=none;verticalAlign=bottom;aspect=fixed;imageAspect=0;fontFamily=Courier;fontSize=8;labelPosition=center;align=center;spacing=-1;fontStyle=1;syncNodeName=error;" vertex="1" parent="1">
          <mxGeometry x="840" y="440" width="40" height="40" as="geometry" />
        </mxCell>
        <mxCell id="FuzomE3j-5ouV37Kwk90-38" style="edgeStyle=orthogonalEdgeStyle;rounded=0;orthogonalLoop=1;jettySize=auto;html=1;exitX=1;exitY=0.5;exitDx=0;exitDy=0;entryX=0;entryY=0.3333333333333333;entryDx=0;entryDy=0;endArrow=none;endFill=0;" edge="1" parent="1" source="FuzomE3j-5ouV37Kwk90-39" target="FuzomE3j-5ouV37Kwk90-28">
          <mxGeometry relative="1" as="geometry">
            <mxPoint x="920" y="333.3333333333333" as="targetPoint" />
          </mxGeometry>
        </mxCell>
        <mxCell id="FuzomE3j-5ouV37Kwk90-39" value="value$num" style="shape=image;verticalLabelPosition=bottom;labelBackgroundColor=#ffffff;verticalAlign=top;aspect=fixed;imageAspect=0;image=data:image/svg+xml,PHN2ZyB4bWxucz0iaHR0cDovL3d3dy53My5vcmcvMjAwMC9zdmciIHhtbG5zOmV2PSJodHRwOi8vd3d3LnczLm9yZy8yMDAxL3htbC1ldmVudHMiIHhtbG5zOnhsaW5rPSJodHRwOi8vd3d3LnczLm9yZy8xOTk5L3hsaW5rIiBiYXNlUHJvZmlsZT0iZnVsbCIgaGVpZ2h0PSI0MCIgdmVyc2lvbj0iMS4xIiB3aWR0aD0iNDAiIHZpZXdCb3g9IjAgMCA0MCA0MCI+PGRlZnMvPjxyZWN0IGZpbGw9IiNmZmZmZmYiIGhlaWdodD0iNDAiIHN0cm9rZT0iIzAwMDAwMCIgc3Ryb2tlLXdpZHRoPSIwLjUiIHdpZHRoPSI0MCIgeD0iMCIgeT0iMCIvPjxwb2x5Z29uIGZpbGw9IiNjNDcxNzkiIHBvaW50cz0iMCwxMy4zMzMzMzMzMzMzMzMzMzYgNi42NjY2NjY2NjY2NjY2NjYsMjAuMCAwLDI2LjY2NjY2NjY2NjY2NjY2NCAwLDEzLjMzMzMzMzMzMzMzMzMzNiIgc3Ryb2tlPSJibGFjayIgc3Ryb2tlLXdpZHRoPSIwLjgiLz48cG9seWdvbiBmaWxsPSIjYmZiZmJmIiBwb2ludHM9IjQwLDEzLjMzMzMzMzMzMzMzMzMzNiAzMy4zMzMzMzMzMzMzMzMzMzYsMjAuMCA0MCwyNi42NjY2NjY2NjY2NjY2NjQgNDAsMTMuMzMzMzMzMzMzMzMzMzM2IiBzdHJva2U9ImJsYWNrIiBzdHJva2Utd2lkdGg9IjAuOCIvPjx0ZXh0IHN0eWxlPSJmb250LXNpemU6OHB4OyBmb250LWZhbWlseTpDb3VyaWVyO2ZvbnQtd2VpZ2h0OmJvbGQ7IiB0ZXh0LWFuY2hvcj0ibWlkZGxlIiB4PSIyMCIgeT0iMjIiPlZhcjwvdGV4dD48cmVjdCBmaWxsPSJub25lIiBoZWlnaHQ9IjQwIiBzdHJva2U9IiMwMDAwMDAiIHN0cm9rZS13aWR0aD0iMS42IiB3aWR0aD0iNDAiIHg9IjAiIHk9IjAiLz48L3N2Zz4=;points=[[0, 0.5], [1, 0.5]];verticalLabelPosition=top;labelBackgroundColor=none;verticalAlign=bottom;aspect=fixed;imageAspect=0;fontFamily=Courier;fontSize=8;labelPosition=center;align=center;spacing=-1;fontStyle=1;syncNodeName=var get;" vertex="1" parent="1">
          <mxGeometry x="840" y="280" width="40" height="40" as="geometry" />
        </mxCell>
        <mxCell id="FuzomE3j-5ouV37Kwk90-40" style="edgeStyle=orthogonalEdgeStyle;rounded=0;orthogonalLoop=1;jettySize=auto;html=1;exitX=1;exitY=0.5;exitDx=0;exitDy=0;entryX=0;entryY=0.6666666666666666;entryDx=0;entryDy=0;endArrow=none;endFill=0;" edge="1" parent="1" source="FuzomE3j-5ouV37Kwk90-41" target="FuzomE3j-5ouV37Kwk90-28">
          <mxGeometry relative="1" as="geometry">
            <mxPoint x="920" y="346.66666666666663" as="targetPoint" />
          </mxGeometry>
        </mxCell>
        <mxCell id="FuzomE3j-5ouV37Kwk90-41" value="8" style="shape=image;verticalLabelPosition=bottom;labelBackgroundColor=#ffffff;verticalAlign=top;aspect=fixed;imageAspect=0;image=data:image/svg+xml,PHN2ZyB4bWxucz0iaHR0cDovL3d3dy53My5vcmcvMjAwMC9zdmciIHhtbG5zOmV2PSJodHRwOi8vd3d3LnczLm9yZy8yMDAxL3htbC1ldmVudHMiIHhtbG5zOnhsaW5rPSJodHRwOi8vd3d3LnczLm9yZy8xOTk5L3hsaW5rIiBiYXNlUHJvZmlsZT0iZnVsbCIgaGVpZ2h0PSI0MCIgdmVyc2lvbj0iMS4xIiB3aWR0aD0iNDAiIHZpZXdCb3g9IjAgMCA0MCA0MCI+PGRlZnMvPjxyZWN0IGZpbGw9IiNmZmZmZmYiIGhlaWdodD0iNDAiIHN0cm9rZT0iIzAwMDAwMCIgc3Ryb2tlLXdpZHRoPSIwLjUiIHdpZHRoPSI0MCIgeD0iMCIgeT0iMCIvPjxwb2x5Z29uIGZpbGw9IiNiZmJmYmYiIHBvaW50cz0iNDAsMTMuMzMzMzMzMzMzMzMzMzM2IDMzLjMzMzMzMzMzMzMzMzMzNiwyMC4wIDQwLDI2LjY2NjY2NjY2NjY2NjY2NCA0MCwxMy4zMzMzMzMzMzMzMzMzMzYiIHN0cm9rZT0iYmxhY2siIHN0cm9rZS13aWR0aD0iMC44Ii8+PHRleHQgc3R5bGU9ImZvbnQtc2l6ZTo4cHg7IGZvbnQtZmFtaWx5OkNvdXJpZXI7Zm9udC13ZWlnaHQ6Ym9sZDsiIHRleHQtYW5jaG9yPSJtaWRkbGUiIHg9IjIwIiB5PSIyMiI+Q29uc3Q8L3RleHQ+PHJlY3QgZmlsbD0ibm9uZSIgaGVpZ2h0PSI0MCIgc3Ryb2tlPSIjMDAwMDAwIiBzdHJva2Utd2lkdGg9IjEuNiIgd2lkdGg9IjQwIiB4PSIwIiB5PSIwIi8+PC9zdmc+;points=[[1, 0.5]];verticalLabelPosition=top;labelBackgroundColor=none;verticalAlign=bottom;aspect=fixed;imageAspect=0;fontFamily=Courier;fontSize=8;labelPosition=center;align=center;spacing=-1;fontStyle=1;syncNodeName=const;" vertex="1" parent="1">
          <mxGeometry x="840" y="360" width="40" height="40" as="geometry" />
        </mxCell>
        <mxCell id="FuzomE3j-5ouV37Kwk90-46" style="edgeStyle=orthogonalEdgeStyle;rounded=0;orthogonalLoop=1;jettySize=auto;html=1;exitX=1;exitY=0.5;exitDx=0;exitDy=0;entryX=0;entryY=0.5;entryDx=0;entryDy=0;endArrow=none;endFill=0;" edge="1" parent="1" source="FuzomE3j-5ouV37Kwk90-43" target="FuzomE3j-5ouV37Kwk90-45">
          <mxGeometry relative="1" as="geometry" />
        </mxCell>
        <mxCell id="FuzomE3j-5ouV37Kwk90-43" value="" style="shape=image;verticalLabelPosition=bottom;labelBackgroundColor=#ffffff;verticalAlign=top;aspect=fixed;imageAspect=0;image=data:image/svg+xml,PHN2ZyB4bWxucz0iaHR0cDovL3d3dy53My5vcmcvMjAwMC9zdmciIHhtbG5zOmV2PSJodHRwOi8vd3d3LnczLm9yZy8yMDAxL3htbC1ldmVudHMiIHhtbG5zOnhsaW5rPSJodHRwOi8vd3d3LnczLm9yZy8xOTk5L3hsaW5rIiBiYXNlUHJvZmlsZT0iZnVsbCIgaGVpZ2h0PSI0MCIgdmVyc2lvbj0iMS4xIiB3aWR0aD0iNDAiIHZpZXdCb3g9IjAgMCA0MCA0MCI+PGRlZnMvPjxyZWN0IGZpbGw9IiNmZmZmZmYiIGhlaWdodD0iNDAiIHN0cm9rZT0iIzAwMDAwMCIgc3Ryb2tlLXdpZHRoPSIwLjUiIHdpZHRoPSI0MCIgeD0iMCIgeT0iMCIvPjxwb2x5Z29uIGZpbGw9IiNiZmJmYmYiIHBvaW50cz0iMCwxMy4zMzMzMzMzMzMzMzMzMzYgNi42NjY2NjY2NjY2NjY2NjYsMjAuMCAwLDI2LjY2NjY2NjY2NjY2NjY2NCAwLDEzLjMzMzMzMzMzMzMzMzMzNiIgc3Ryb2tlPSJibGFjayIgc3Ryb2tlLXdpZHRoPSIwLjgiLz48cG9seWdvbiBmaWxsPSIjYzQ3MTc5IiBwb2ludHM9IjQwLDEzLjMzMzMzMzMzMzMzMzMzNiAzMy4zMzMzMzMzMzMzMzMzMzYsMjAuMCA0MCwyNi42NjY2NjY2NjY2NjY2NjQgNDAsMTMuMzMzMzMzMzMzMzMzMzM2IiBzdHJva2U9ImJsYWNrIiBzdHJva2Utd2lkdGg9IjAuOCIvPjx0ZXh0IHN0eWxlPSJmb250LXNpemU6OHB4OyBmb250LWZhbWlseTpDb3VyaWVyO2ZvbnQtd2VpZ2h0OmJvbGQ7IiB0ZXh0LWFuY2hvcj0ibWlkZGxlIiB4PSIyMCIgeT0iMjIiPlByaW50PC90ZXh0PjxyZWN0IGZpbGw9Im5vbmUiIGhlaWdodD0iNDAiIHN0cm9rZT0iIzAwMDAwMCIgc3Ryb2tlLXdpZHRoPSIxLjYiIHdpZHRoPSI0MCIgeD0iMCIgeT0iMCIvPjwvc3ZnPg==;points=[[0, 0.5], [1, 0.5]];verticalLabelPosition=top;labelBackgroundColor=none;verticalAlign=bottom;aspect=fixed;imageAspect=0;fontFamily=Courier;fontSize=8;labelPosition=center;align=center;spacing=-1;fontStyle=1;syncNodeName=print ctrl;" vertex="1" parent="1">
          <mxGeometry x="1000" y="320" width="40" height="40" as="geometry" />
        </mxCell>
        <mxCell id="FuzomE3j-5ouV37Kwk90-45" value="" style="shape=image;verticalLabelPosition=bottom;labelBackgroundColor=#ffffff;verticalAlign=top;aspect=fixed;imageAspect=0;image=data:image/svg+xml,PHN2ZyB4bWxucz0iaHR0cDovL3d3dy53My5vcmcvMjAwMC9zdmciIHhtbG5zOmV2PSJodHRwOi8vd3d3LnczLm9yZy8yMDAxL3htbC1ldmVudHMiIHhtbG5zOnhsaW5rPSJodHRwOi8vd3d3LnczLm9yZy8xOTk5L3hsaW5rIiBiYXNlUHJvZmlsZT0iZnVsbCIgaGVpZ2h0PSI0MCIgdmVyc2lvbj0iMS4xIiB3aWR0aD0iNDAiIHZpZXdCb3g9IjAgMCA0MCA0MCI+PGRlZnMvPjxyZWN0IGZpbGw9IiNmZmZmZmYiIGhlaWdodD0iNDAiIHN0cm9rZT0iIzAwMDAwMCIgc3Ryb2tlLXdpZHRoPSIwLjUiIHdpZHRoPSI0MCIgeD0iMCIgeT0iMCIvPjxwb2x5Z29uIGZpbGw9IiNjNDcxNzkiIHBvaW50cz0iMCwxMy4zMzMzMzMzMzMzMzMzMzYgNi42NjY2NjY2NjY2NjY2NjYsMjAuMCAwLDI2LjY2NjY2NjY2NjY2NjY2NCAwLDEzLjMzMzMzMzMzMzMzMzMzNiIgc3Ryb2tlPSJibGFjayIgc3Ryb2tlLXdpZHRoPSIwLjgiLz48dGV4dCBzdHlsZT0iZm9udC1zaXplOjhweDsgZm9udC1mYW1pbHk6Q291cmllcjtmb250LXdlaWdodDpib2xkOyIgdGV4dC1hbmNob3I9Im1pZGRsZSIgeD0iMjAiIHk9IjIyIj5TdG9wPC90ZXh0PjxyZWN0IGZpbGw9Im5vbmUiIGhlaWdodD0iNDAiIHN0cm9rZT0iIzAwMDAwMCIgc3Ryb2tlLXdpZHRoPSIxLjYiIHdpZHRoPSI0MCIgeD0iMCIgeT0iMCIvPjwvc3ZnPg==;points=[[0, 0.5]];verticalLabelPosition=top;labelBackgroundColor=none;verticalAlign=bottom;aspect=fixed;imageAspect=0;fontFamily=Courier;fontSize=8;labelPosition=center;align=center;spacing=-1;fontStyle=1;syncNodeName=stop;" vertex="1" parent="1">
          <mxGeometry x="1080" y="320" width="40" height="40" as="geometry" />
        </mxCell>
        <mxCell id="FuzomE3j-5ouV37Kwk90-48" style="edgeStyle=orthogonalEdgeStyle;rounded=0;orthogonalLoop=1;jettySize=auto;html=1;exitX=1;exitY=0.5;exitDx=0;exitDy=0;entryX=0;entryY=0.3333333333333333;entryDx=0;entryDy=0;endArrow=none;endFill=0;" edge="1" parent="1" source="FuzomE3j-5ouV37Kwk90-49" target="FuzomE3j-5ouV37Kwk90-53">
          <mxGeometry relative="1" as="geometry">
            <mxPoint x="600" y="573.3333333333334" as="targetPoint" />
          </mxGeometry>
        </mxCell>
        <mxCell id="FuzomE3j-5ouV37Kwk90-49" value="value" style="shape=image;verticalLabelPosition=bottom;labelBackgroundColor=#ffffff;verticalAlign=top;aspect=fixed;imageAspect=0;image=data:image/svg+xml,PHN2ZyB4bWxucz0iaHR0cDovL3d3dy53My5vcmcvMjAwMC9zdmciIHhtbG5zOmV2PSJodHRwOi8vd3d3LnczLm9yZy8yMDAxL3htbC1ldmVudHMiIHhtbG5zOnhsaW5rPSJodHRwOi8vd3d3LnczLm9yZy8xOTk5L3hsaW5rIiBiYXNlUHJvZmlsZT0iZnVsbCIgaGVpZ2h0PSI0MCIgdmVyc2lvbj0iMS4xIiB3aWR0aD0iNDAiIHZpZXdCb3g9IjAgMCA0MCA0MCI+PGRlZnMvPjxyZWN0IGZpbGw9IiNmZmZmZmYiIGhlaWdodD0iNDAiIHN0cm9rZT0iIzAwMDAwMCIgc3Ryb2tlLXdpZHRoPSIwLjUiIHdpZHRoPSI0MCIgeD0iMCIgeT0iMCIvPjxwb2x5Z29uIGZpbGw9IiNjNDcxNzkiIHBvaW50cz0iMCwxMy4zMzMzMzMzMzMzMzMzMzYgNi42NjY2NjY2NjY2NjY2NjYsMjAuMCAwLDI2LjY2NjY2NjY2NjY2NjY2NCAwLDEzLjMzMzMzMzMzMzMzMzMzNiIgc3Ryb2tlPSJibGFjayIgc3Ryb2tlLXdpZHRoPSIwLjgiLz48cG9seWdvbiBmaWxsPSIjYmZiZmJmIiBwb2ludHM9IjQwLDEzLjMzMzMzMzMzMzMzMzMzNiAzMy4zMzMzMzMzMzMzMzMzMzYsMjAuMCA0MCwyNi42NjY2NjY2NjY2NjY2NjQgNDAsMTMuMzMzMzMzMzMzMzMzMzM2IiBzdHJva2U9ImJsYWNrIiBzdHJva2Utd2lkdGg9IjAuOCIvPjx0ZXh0IHN0eWxlPSJmb250LXNpemU6OHB4OyBmb250LWZhbWlseTpDb3VyaWVyO2ZvbnQtd2VpZ2h0OmJvbGQ7IiB0ZXh0LWFuY2hvcj0ibWlkZGxlIiB4PSIyMCIgeT0iMjIiPlZhcjwvdGV4dD48cmVjdCBmaWxsPSJub25lIiBoZWlnaHQ9IjQwIiBzdHJva2U9IiMwMDAwMDAiIHN0cm9rZS13aWR0aD0iMS42IiB3aWR0aD0iNDAiIHg9IjAiIHk9IjAiLz48L3N2Zz4=;points=[[0, 0.5], [1, 0.5]];verticalLabelPosition=top;labelBackgroundColor=none;verticalAlign=bottom;aspect=fixed;imageAspect=0;fontFamily=Courier;fontSize=8;labelPosition=center;align=center;spacing=-1;fontStyle=1;syncNodeName=var get;" vertex="1" parent="1">
          <mxGeometry x="520" y="520" width="40" height="40" as="geometry" />
        </mxCell>
        <mxCell id="FuzomE3j-5ouV37Kwk90-50" style="edgeStyle=orthogonalEdgeStyle;rounded=0;orthogonalLoop=1;jettySize=auto;html=1;exitX=1;exitY=0.5;exitDx=0;exitDy=0;entryX=0;entryY=0.6666666666666666;entryDx=0;entryDy=0;endArrow=none;endFill=0;" edge="1" parent="1" source="FuzomE3j-5ouV37Kwk90-51" target="FuzomE3j-5ouV37Kwk90-53">
          <mxGeometry relative="1" as="geometry">
            <mxPoint x="600" y="586.6666666666667" as="targetPoint" />
          </mxGeometry>
        </mxCell>
        <mxCell id="FuzomE3j-5ouV37Kwk90-51" value="8" style="shape=image;verticalLabelPosition=bottom;labelBackgroundColor=#ffffff;verticalAlign=top;aspect=fixed;imageAspect=0;image=data:image/svg+xml,PHN2ZyB4bWxucz0iaHR0cDovL3d3dy53My5vcmcvMjAwMC9zdmciIHhtbG5zOmV2PSJodHRwOi8vd3d3LnczLm9yZy8yMDAxL3htbC1ldmVudHMiIHhtbG5zOnhsaW5rPSJodHRwOi8vd3d3LnczLm9yZy8xOTk5L3hsaW5rIiBiYXNlUHJvZmlsZT0iZnVsbCIgaGVpZ2h0PSI0MCIgdmVyc2lvbj0iMS4xIiB3aWR0aD0iNDAiIHZpZXdCb3g9IjAgMCA0MCA0MCI+PGRlZnMvPjxyZWN0IGZpbGw9IiNmZmZmZmYiIGhlaWdodD0iNDAiIHN0cm9rZT0iIzAwMDAwMCIgc3Ryb2tlLXdpZHRoPSIwLjUiIHdpZHRoPSI0MCIgeD0iMCIgeT0iMCIvPjxwb2x5Z29uIGZpbGw9IiNiZmJmYmYiIHBvaW50cz0iNDAsMTMuMzMzMzMzMzMzMzMzMzM2IDMzLjMzMzMzMzMzMzMzMzMzNiwyMC4wIDQwLDI2LjY2NjY2NjY2NjY2NjY2NCA0MCwxMy4zMzMzMzMzMzMzMzMzMzYiIHN0cm9rZT0iYmxhY2siIHN0cm9rZS13aWR0aD0iMC44Ii8+PHRleHQgc3R5bGU9ImZvbnQtc2l6ZTo4cHg7IGZvbnQtZmFtaWx5OkNvdXJpZXI7Zm9udC13ZWlnaHQ6Ym9sZDsiIHRleHQtYW5jaG9yPSJtaWRkbGUiIHg9IjIwIiB5PSIyMiI+Q29uc3Q8L3RleHQ+PHJlY3QgZmlsbD0ibm9uZSIgaGVpZ2h0PSI0MCIgc3Ryb2tlPSIjMDAwMDAwIiBzdHJva2Utd2lkdGg9IjEuNiIgd2lkdGg9IjQwIiB4PSIwIiB5PSIwIi8+PC9zdmc+;points=[[1, 0.5]];verticalLabelPosition=top;labelBackgroundColor=none;verticalAlign=bottom;aspect=fixed;imageAspect=0;fontFamily=Courier;fontSize=8;labelPosition=center;align=center;spacing=-1;fontStyle=1;syncNodeName=const;" vertex="1" parent="1">
          <mxGeometry x="520" y="600" width="40" height="40" as="geometry" />
        </mxCell>
        <mxCell id="FuzomE3j-5ouV37Kwk90-55" style="edgeStyle=orthogonalEdgeStyle;rounded=0;orthogonalLoop=1;jettySize=auto;html=1;exitX=1;exitY=0.5;exitDx=0;exitDy=0;entryX=0;entryY=0.5;entryDx=0;entryDy=0;endArrow=none;endFill=0;" edge="1" parent="1" source="FuzomE3j-5ouV37Kwk90-53" target="FuzomE3j-5ouV37Kwk90-54">
          <mxGeometry relative="1" as="geometry" />
        </mxCell>
        <mxCell id="FuzomE3j-5ouV37Kwk90-53" value="" style="shape=image;verticalLabelPosition=bottom;labelBackgroundColor=#ffffff;verticalAlign=top;aspect=fixed;imageAspect=0;image=data:image/svg+xml,PHN2ZyB4bWxucz0iaHR0cDovL3d3dy53My5vcmcvMjAwMC9zdmciIHhtbG5zOmV2PSJodHRwOi8vd3d3LnczLm9yZy8yMDAxL3htbC1ldmVudHMiIHhtbG5zOnhsaW5rPSJodHRwOi8vd3d3LnczLm9yZy8xOTk5L3hsaW5rIiBiYXNlUHJvZmlsZT0iZnVsbCIgaGVpZ2h0PSI0MCIgdmVyc2lvbj0iMS4xIiB3aWR0aD0iNDAiIHZpZXdCb3g9IjAgMCA0MCA0MCI+PGRlZnMvPjxyZWN0IGZpbGw9IiNmZmZmZmYiIGhlaWdodD0iNDAiIHN0cm9rZT0iIzAwMDAwMCIgc3Ryb2tlLXdpZHRoPSIwLjUiIHdpZHRoPSI0MCIgeD0iMCIgeT0iMCIvPjxwb2x5Z29uIGZpbGw9IiM4OGQxYzkiIHBvaW50cz0iMCw2LjY2NjY2NjY2NjY2NjY2NiA2LjY2NjY2NjY2NjY2NjY2Niw2LjY2NjY2NjY2NjY2NjY2NiA2LjY2NjY2NjY2NjY2NjY2NiwzMy4zMzMzMzMzMzMzMzMzMyAwLDMzLjMzMzMzMzMzMzMzMzMzIDAsNi42NjY2NjY2NjY2NjY2NjYiIHN0cm9rZT0iYmxhY2siIHN0cm9rZS13aWR0aD0iMC44Ii8+PHBvbHlnb24gZmlsbD0iIzg4ZDFjOSIgcG9pbnRzPSI0MCwxMy4zMzMzMzMzMzMzMzMzMzYgMzMuMzMzMzMzMzMzMzMzMzM2LDIwLjAgNDAsMjYuNjY2NjY2NjY2NjY2NjY0IDQwLDEzLjMzMzMzMzMzMzMzMzMzNiIgc3Ryb2tlPSJibGFjayIgc3Ryb2tlLXdpZHRoPSIwLjgiLz48dGV4dCBzdHlsZT0iZm9udC1zaXplOjhweDsgZm9udC1mYW1pbHk6Q291cmllcjtmb250LXdlaWdodDpib2xkOyIgdGV4dC1hbmNob3I9Im1pZGRsZSIgeD0iMjAiIHk9IjIyIj4qPC90ZXh0PjxyZWN0IGZpbGw9Im5vbmUiIGhlaWdodD0iNDAiIHN0cm9rZT0iIzAwMDAwMCIgc3Ryb2tlLXdpZHRoPSIxLjYiIHdpZHRoPSI0MCIgeD0iMCIgeT0iMCIvPjwvc3ZnPg==;points=[[0, 0.25], [0, 0.3333333333333333], [0, 0.41666666666666663], [0, 0.5], [0, 0.5833333333333333], [0, 0.6666666666666666], [0, 0.75], [1, 0.5]];verticalLabelPosition=top;labelBackgroundColor=none;verticalAlign=bottom;aspect=fixed;imageAspect=0;fontFamily=Courier;fontSize=8;labelPosition=center;align=center;spacing=-1;fontStyle=1;syncNodeName=mult;" vertex="1" parent="1">
          <mxGeometry x="600" y="560" width="40" height="40" as="geometry" />
        </mxCell>
        <mxCell id="FuzomE3j-5ouV37Kwk90-57" style="edgeStyle=orthogonalEdgeStyle;rounded=0;orthogonalLoop=1;jettySize=auto;html=1;exitX=1;exitY=0.5;exitDx=0;exitDy=0;entryX=0;entryY=0.5;entryDx=0;entryDy=0;endArrow=none;endFill=0;" edge="1" parent="1" source="FuzomE3j-5ouV37Kwk90-54" target="FuzomE3j-5ouV37Kwk90-56">
          <mxGeometry relative="1" as="geometry" />
        </mxCell>
        <mxCell id="FuzomE3j-5ouV37Kwk90-54" value="" style="shape=image;verticalLabelPosition=bottom;labelBackgroundColor=#ffffff;verticalAlign=top;aspect=fixed;imageAspect=0;image=data:image/svg+xml,PHN2ZyB4bWxucz0iaHR0cDovL3d3dy53My5vcmcvMjAwMC9zdmciIHhtbG5zOmV2PSJodHRwOi8vd3d3LnczLm9yZy8yMDAxL3htbC1ldmVudHMiIHhtbG5zOnhsaW5rPSJodHRwOi8vd3d3LnczLm9yZy8xOTk5L3hsaW5rIiBiYXNlUHJvZmlsZT0iZnVsbCIgaGVpZ2h0PSI0MCIgdmVyc2lvbj0iMS4xIiB3aWR0aD0iNDAiIHZpZXdCb3g9IjAgMCA0MCA0MCI+PGRlZnMvPjxyZWN0IGZpbGw9IiNmZmZmZmYiIGhlaWdodD0iNDAiIHN0cm9rZT0iIzAwMDAwMCIgc3Ryb2tlLXdpZHRoPSIwLjUiIHdpZHRoPSI0MCIgeD0iMCIgeT0iMCIvPjxwb2x5Z29uIGZpbGw9IiNiZmJmYmYiIHBvaW50cz0iMCwxMy4zMzMzMzMzMzMzMzMzMzYgNi42NjY2NjY2NjY2NjY2NjYsMjAuMCAwLDI2LjY2NjY2NjY2NjY2NjY2NCAwLDEzLjMzMzMzMzMzMzMzMzMzNiIgc3Ryb2tlPSJibGFjayIgc3Ryb2tlLXdpZHRoPSIwLjgiLz48cG9seWdvbiBmaWxsPSIjYzQ3MTc5IiBwb2ludHM9IjQwLDEzLjMzMzMzMzMzMzMzMzMzNiAzMy4zMzMzMzMzMzMzMzMzMzYsMjAuMCA0MCwyNi42NjY2NjY2NjY2NjY2NjQgNDAsMTMuMzMzMzMzMzMzMzMzMzM2IiBzdHJva2U9ImJsYWNrIiBzdHJva2Utd2lkdGg9IjAuOCIvPjx0ZXh0IHN0eWxlPSJmb250LXNpemU6OHB4OyBmb250LWZhbWlseTpDb3VyaWVyO2ZvbnQtd2VpZ2h0OmJvbGQ7IiB0ZXh0LWFuY2hvcj0ibWlkZGxlIiB4PSIyMCIgeT0iMjIiPlByaW50PC90ZXh0PjxyZWN0IGZpbGw9Im5vbmUiIGhlaWdodD0iNDAiIHN0cm9rZT0iIzAwMDAwMCIgc3Ryb2tlLXdpZHRoPSIxLjYiIHdpZHRoPSI0MCIgeD0iMCIgeT0iMCIvPjwvc3ZnPg==;points=[[0, 0.5], [1, 0.5]];verticalLabelPosition=top;labelBackgroundColor=none;verticalAlign=bottom;aspect=fixed;imageAspect=0;fontFamily=Courier;fontSize=8;labelPosition=center;align=center;spacing=-1;fontStyle=1;syncNodeName=print ctrl;" vertex="1" parent="1">
          <mxGeometry x="680" y="560" width="40" height="40" as="geometry" />
        </mxCell>
        <mxCell id="FuzomE3j-5ouV37Kwk90-56" value="" style="shape=image;verticalLabelPosition=bottom;labelBackgroundColor=#ffffff;verticalAlign=top;aspect=fixed;imageAspect=0;image=data:image/svg+xml,PHN2ZyB4bWxucz0iaHR0cDovL3d3dy53My5vcmcvMjAwMC9zdmciIHhtbG5zOmV2PSJodHRwOi8vd3d3LnczLm9yZy8yMDAxL3htbC1ldmVudHMiIHhtbG5zOnhsaW5rPSJodHRwOi8vd3d3LnczLm9yZy8xOTk5L3hsaW5rIiBiYXNlUHJvZmlsZT0iZnVsbCIgaGVpZ2h0PSI0MCIgdmVyc2lvbj0iMS4xIiB3aWR0aD0iNDAiIHZpZXdCb3g9IjAgMCA0MCA0MCI+PGRlZnMvPjxyZWN0IGZpbGw9IiNmZmZmZmYiIGhlaWdodD0iNDAiIHN0cm9rZT0iIzAwMDAwMCIgc3Ryb2tlLXdpZHRoPSIwLjUiIHdpZHRoPSI0MCIgeD0iMCIgeT0iMCIvPjxwb2x5Z29uIGZpbGw9IiNjNDcxNzkiIHBvaW50cz0iMCwxMy4zMzMzMzMzMzMzMzMzMzYgNi42NjY2NjY2NjY2NjY2NjYsMjAuMCAwLDI2LjY2NjY2NjY2NjY2NjY2NCAwLDEzLjMzMzMzMzMzMzMzMzMzNiIgc3Ryb2tlPSJibGFjayIgc3Ryb2tlLXdpZHRoPSIwLjgiLz48dGV4dCBzdHlsZT0iZm9udC1zaXplOjhweDsgZm9udC1mYW1pbHk6Q291cmllcjtmb250LXdlaWdodDpib2xkOyIgdGV4dC1hbmNob3I9Im1pZGRsZSIgeD0iMjAiIHk9IjIyIj5TdG9wPC90ZXh0PjxyZWN0IGZpbGw9Im5vbmUiIGhlaWdodD0iNDAiIHN0cm9rZT0iIzAwMDAwMCIgc3Ryb2tlLXdpZHRoPSIxLjYiIHdpZHRoPSI0MCIgeD0iMCIgeT0iMCIvPjwvc3ZnPg==;points=[[0, 0.5]];verticalLabelPosition=top;labelBackgroundColor=none;verticalAlign=bottom;aspect=fixed;imageAspect=0;fontFamily=Courier;fontSize=8;labelPosition=center;align=center;spacing=-1;fontStyle=1;syncNodeName=stop;" vertex="1" parent="1">
          <mxGeometry x="760" y="560" width="40" height="40" as="geometry" />
        </mxCell>
      </root>
    </mxGraphModel>
  </diagram>
</mxfile>
